<?xml version="1.0" standalone="no"?>
<!DOCTYPE svg PUBLIC "-//W3C//DTD SVG 20010904//EN"
 "http://www.w3.org/TR/2001/REC-SVG-20010904/DTD/svg10.dtd">
<svg version="1.0" xmlns="http://www.w3.org/2000/svg"
 width="200.000000pt" height="200.000000pt" viewBox="0 0 200.000000 200.000000"
 preserveAspectRatio="xMidYMid meet">
<metadata>
Created by potrace 1.14, written by Peter Selinger 2001-2017
</metadata>
<g transform="translate(0.000000,200.000000) scale(0.100000,-0.100000)"
fill="#000000" stroke="none">
<path d="M853 1726 c-94 -23 -155 -63 -269 -174 -283 -280 -354 -397 -354
-587 0 -67 31 -183 63 -237 28 -47 239 -260 353 -357 126 -107 238 -147 384
-138 155 10 217 44 375 203 278 282 323 353 333 530 10 182 -33 272 -212 449
-139 137 -241 226 -305 263 -97 56 -249 76 -368 48z m216 -418 c56 -27 227
-190 247 -235 16 -37 19 -139 4 -148 -5 -3 -10 -14 -10 -25 0 -28 -210 -235
-255 -250 -43 -14 -121 -8 -161 13 -38 20 -214 199 -236 240 -22 40 -21 111 0
160 9 20 64 84 121 142 85 85 111 106 145 114 66 15 97 12 145 -11z"/>
</g>
</svg>
